<?xml version="1.0" standalone="no"?><!DOCTYPE svg PUBLIC "-//W3C//DTD SVG 1.1//EN" "http://www.w3.org/Graphics/SVG/1.1/DTD/svg11.dtd"><svg t="1543068640560" class="icon" style="" viewBox="0 0 1024 1024" version="1.1" xmlns="http://www.w3.org/2000/svg" p-id="17580" xmlns:xlink="http://www.w3.org/1999/xlink" width="200" height="200"><defs><style type="text/css"></style></defs><path d="M258 416h508c22 0 40 18 40 40v388c0 22-18 40-40 40H258c-22 0-40-18-40-40V456c0-22 18-40 40-40z" fill="#F9F8F7" p-id="17581"></path><path d="M766 416H512v468h254c22 0 40-18 40-40V456c0-22-18-40-40-40z" fill="#EFEBE8" p-id="17582"></path><path d="M322 416h366c11 0 20 9 20 20v258c0 11-9 20-20 20H322c-11 0-20-9-20-20V436c0-11 9-20 20-20z" fill="#FDE4B1" p-id="17583"></path><path d="M688 416h-176v298h176c11 0 20-9 20-20V436c0-11-9-20-20-20z" fill="#EFD19C" p-id="17584"></path><path d="M214 348h582c11 0 20 9 20 20v60c0 11-9 20-20 20H214c-11 0-20-9-20-20v-60c0-11 9-20 20-20z" fill="#F9F8F7" p-id="17585"></path><path d="M796 348H512v100h284c11 0 20-9 20-20v-60c0-11-9-20-20-20z" fill="#EFEBE8" p-id="17586"></path><path d="M742 487V448c0-55.2-44.8-100-100-100H209c40.4-161.2 204-259.2 365.2-218.8C735.2 169.6 833.2 332.8 793 494c-20.6 37-37 50.4-51-7z" fill="#E95030" p-id="17587"></path><path d="M574.2 129.2c-20.8-5.2-41.6-8-62.2-8.8V348h130c55.2 0 100 44.8 100 100v39c14 57.4 30.4 44 51 7 40.2-161.2-57.8-324.4-218.8-364.8z" fill="#DD4026" p-id="17588"></path><path d="M772 506m-60 0a60 60 0 1 0 120 0 60 60 0 1 0-120 0Z" fill="#F9F8F7" p-id="17589"></path><path d="M396 520m-20 0a20 20 0 1 0 40 0 20 20 0 1 0-40 0Z" fill="#313131" p-id="17590"></path><path d="M608 520m-20 0a20 20 0 1 0 40 0 20 20 0 1 0-40 0Z" fill="" p-id="17591"></path><path d="M330 654s56.6 107.8 154 60c36.6-18 45.6-128.6-36-108-17.4 3.4-21.4 22-32 34-19.6 22-43 47-86 14z" fill="#F9F8F7" p-id="17592"></path><path d="M692 654.2s-56.2 107.2-153.2 59.6c-36.4-17.8-45.4-127.8 35.8-107.2 17.2 3.4 21.2 21.8 31.8 33.8 19.6 21.8 42.8 46.6 85.6 13.8z" fill="#EFEBE8" p-id="17593"></path></svg>